<?xml version="1.0" encoding="UTF-8"?>
<svg xmlns="http://www.w3.org/2000/svg" viewBox="0 0 32 32" width="32" height="32">
  <defs>
    <linearGradient id="fav-red" x1="0%" y1="0%" x2="100%" y2="100%">
      <stop offset="0%" stop-color="#ff3b5c"/>
      <stop offset="55%" stop-color="#dc2640"/>
      <stop offset="100%" stop-color="#7a0a1f"/>
    </linearGradient>
  </defs>
  <rect x="0" y="0" width="32" height="32" rx="7" ry="7" fill="url(#fav-red)"/>
  <circle cx="16" cy="16" r="11" fill="#0a0306"/>
  <path d="M 10 13 Q 10 11 12 11 L 13 11 Q 15 11 15 13 L 15 15 Q 15 17 13 17 L 12 17 Q 10 17 10 15 Z" fill="#ff3b5c"/>
  <path d="M 15 13 Q 15 11 17 11 L 18 11 Q 20 11 20 13 L 20 15 Q 20 17 18 17 L 17 17 Q 15 17 15 15 Z" fill="#ff3b5c"/>
  <circle cx="12.5" cy="14" r="0.7" fill="#ffe5ea"/>
  <circle cx="17.5" cy="14" r="0.7" fill="#ffe5ea"/>
  <path d="M 16 18 L 15 21 Q 16 21.5 17 21 Z" fill="#ff3b5c"/>
</svg>
